<svg width="198" height="53" viewBox="0 0 198 53" fill="none" xmlns="http://www.w3.org/2000/svg">
<path d="M67.48 40.21C65.94 40.21 64.56 39.96 63.34 39.46C62.12 38.96 61.14 38.22 60.4 37.24C59.68 36.26 59.3 35.08 59.26 33.7H64.72C64.8 34.48 65.07 35.08 65.53 35.5C65.99 35.9 66.59 36.1 67.33 36.1C68.09 36.1 68.69 35.93 69.13 35.59C69.57 35.23 69.79 34.74 69.79 34.12C69.79 33.6 69.61 33.17 69.25 32.83C68.91 32.49 68.48 32.21 67.96 31.99C67.46 31.77 66.74 31.52 65.8 31.24C64.44 30.82 63.33 30.4 62.47 29.98C61.61 29.56 60.87 28.94 60.25 28.12C59.63 27.3 59.32 26.23 59.32 24.91C59.32 22.95 60.03 21.42 61.45 20.32C62.87 19.2 64.72 18.64 67 18.64C69.32 18.64 71.19 19.2 72.61 20.32C74.03 21.42 74.79 22.96 74.89 24.94H69.34C69.3 24.26 69.05 23.73 68.59 23.35C68.13 22.95 67.54 22.75 66.82 22.75C66.2 22.75 65.7 22.92 65.32 23.26C64.94 23.58 64.75 24.05 64.75 24.67C64.75 25.35 65.07 25.88 65.71 26.26C66.35 26.64 67.35 27.05 68.71 27.49C70.07 27.95 71.17 28.39 72.01 28.81C72.87 29.23 73.61 29.84 74.23 30.64C74.85 31.44 75.16 32.47 75.16 33.73C75.16 34.93 74.85 36.02 74.23 37C73.63 37.98 72.75 38.76 71.59 39.34C70.43 39.92 69.06 40.21 67.48 40.21ZM86.037 40.24C84.397 40.24 82.917 39.89 81.597 39.19C80.297 38.49 79.267 37.49 78.507 36.19C77.767 34.89 77.397 33.37 77.397 31.63C77.397 29.91 77.777 28.4 78.537 27.1C79.297 25.78 80.337 24.77 81.657 24.07C82.977 23.37 84.457 23.02 86.097 23.02C87.737 23.02 89.217 23.37 90.537 24.07C91.857 24.77 92.897 25.78 93.657 27.1C94.417 28.4 94.797 29.91 94.797 31.63C94.797 33.35 94.407 34.87 93.627 36.19C92.867 37.49 91.817 38.49 90.477 39.19C89.157 39.89 87.677 40.24 86.037 40.24ZM86.037 35.8C87.017 35.8 87.847 35.44 88.527 34.72C89.227 34 89.577 32.97 89.577 31.63C89.577 30.29 89.237 29.26 88.557 28.54C87.897 27.82 87.077 27.46 86.097 27.46C85.097 27.46 84.267 27.82 83.607 28.54C82.947 29.24 82.617 30.27 82.617 31.63C82.617 32.97 82.937 34 83.577 34.72C84.237 35.44 85.057 35.8 86.037 35.8ZM102.749 17.8V40H97.6186V17.8H102.749ZM105.546 31.6C105.546 29.88 105.866 28.37 106.506 27.07C107.166 25.77 108.056 24.77 109.176 24.07C110.296 23.37 111.546 23.02 112.926 23.02C114.106 23.02 115.136 23.26 116.016 23.74C116.916 24.22 117.606 24.85 118.086 25.63V23.26H123.216V40H118.086V37.63C117.586 38.41 116.886 39.04 115.986 39.52C115.106 40 114.076 40.24 112.896 40.24C111.536 40.24 110.296 39.89 109.176 39.19C108.056 38.47 107.166 37.46 106.506 36.16C105.866 34.84 105.546 33.32 105.546 31.6ZM118.086 31.63C118.086 30.35 117.726 29.34 117.006 28.6C116.306 27.86 115.446 27.49 114.426 27.49C113.406 27.49 112.536 27.86 111.816 28.6C111.116 29.32 110.766 30.32 110.766 31.6C110.766 32.88 111.116 33.9 111.816 34.66C112.536 35.4 113.406 35.77 114.426 35.77C115.446 35.77 116.306 35.4 117.006 34.66C117.726 33.92 118.086 32.91 118.086 31.63ZM132.158 26.05C132.758 25.13 133.508 24.41 134.408 23.89C135.308 23.35 136.308 23.08 137.408 23.08V28.51H135.998C134.718 28.51 133.758 28.79 133.118 29.35C132.478 29.89 132.158 30.85 132.158 32.23V40H127.028V23.26H132.158V26.05ZM152.71 29.2C153.93 29.46 154.91 30.07 155.65 31.03C156.39 31.97 156.76 33.05 156.76 34.27C156.76 36.03 156.14 37.43 154.9 38.47C153.68 39.49 151.97 40 149.77 40H139.96V18.94H149.44C151.58 18.94 153.25 19.43 154.45 20.41C155.67 21.39 156.28 22.72 156.28 24.4C156.28 25.64 155.95 26.67 155.29 27.49C154.65 28.31 153.79 28.88 152.71 29.2ZM145.09 27.46H148.45C149.29 27.46 149.93 27.28 150.37 26.92C150.83 26.54 151.06 25.99 151.06 25.27C151.06 24.55 150.83 24 150.37 23.62C149.93 23.24 149.29 23.05 148.45 23.05H145.09V27.46ZM148.87 35.86C149.73 35.86 150.39 35.67 150.85 35.29C151.33 34.89 151.57 34.32 151.57 33.58C151.57 32.84 151.32 32.26 150.82 31.84C150.34 31.42 149.67 31.21 148.81 31.21H145.09V35.86H148.87ZM167.455 40.24C165.815 40.24 164.335 39.89 163.015 39.19C161.715 38.49 160.685 37.49 159.925 36.19C159.185 34.89 158.815 33.37 158.815 31.63C158.815 29.91 159.195 28.4 159.955 27.1C160.715 25.78 161.755 24.77 163.075 24.07C164.395 23.37 165.875 23.02 167.515 23.02C169.155 23.02 170.635 23.37 171.955 24.07C173.275 24.77 174.315 25.78 175.075 27.1C175.835 28.4 176.215 29.91 176.215 31.63C176.215 33.35 175.825 34.87 175.045 36.19C174.285 37.49 173.235 38.49 171.895 39.19C170.575 39.89 169.095 40.24 167.455 40.24ZM167.455 35.8C168.435 35.8 169.265 35.44 169.945 34.72C170.645 34 170.995 32.97 170.995 31.63C170.995 30.29 170.655 29.26 169.975 28.54C169.315 27.82 168.495 27.46 167.515 27.46C166.515 27.46 165.685 27.82 165.025 28.54C164.365 29.24 164.035 30.27 164.035 31.63C164.035 32.97 164.355 34 164.995 34.72C165.655 35.44 166.475 35.8 167.455 35.8ZM188.937 40L185.727 35.35L183.027 40H177.477L182.997 31.45L177.327 23.26H183.087L186.297 27.88L188.997 23.26H194.547L188.937 31.69L194.697 40H188.937Z" fill="white"/>
<path d="M0 13.25L22.8973 0L45.8029 13.25L46 39.6374L22.8973 53L0 39.75V13.25ZM4.57684 18.7272V29.2345L11.9004 33.3403V41.1048L20.6023 46.1779V27.9078L4.57684 18.7272ZM41.2408 18.7272L25.2153 27.9062V46.1762L33.909 41.1032V33.3486L41.2425 29.2345L41.2408 18.7272ZM6.86197 14.5783L22.8628 23.7307L38.8965 14.5005L30.4181 9.64434L22.9483 13.9407L15.4357 9.593L6.86197 14.5783Z" fill="white"/>
</svg>
